<svg xmlns="http://www.w3.org/2000/svg" width="191" height="82" xmlns:xlink="http://www.w3.org/1999/xlink" viewBox="0 0 191.4 81.8">
                <style>
                    .st0{fill-rule:evenodd;clip-rule:evenodd;fill:url(#SVGID_1_);} .st1{fill-rule:evenodd;clip-rule:evenodd;fill:url(#SVGID_2_);} .st2{fill:#7A7074;} .st3{fill:#1D1D1B;} .st4{fill:#A9218E;} .st5{fill-rule:evenodd;clip-rule:evenodd;fill:#FFFFFF;} .st6{fill-rule:evenodd;clip-rule:evenodd;fill:url(#SVGID_3_);} .st7{fill-rule:evenodd;clip-rule:evenodd;fill:url(#SVGID_4_);}
                </style>

                <linearGradient gradientUnits="userSpaceOnUse" id="SVGID_1_" x1=".627" x2="21.61" y1="21.844" y2="21.844">
                    <stop offset="0" stop-color="#E3C2DD"></stop>
                    <stop offset="1" stop-color="#CA7FB3"></stop>
                </linearGradient>
                <path class="st0" d="M.6 43.1V.6h21v11.5c-4 6.7-8 11.5-8 13.7 0 2.4 2 2.8 6.6 2.8v14.3H.6z"></path>
                <linearGradient gradientUnits="userSpaceOnUse" id="SVGID_2_" x1="13.615" x2="41.082" y1="21.844" y2="21.844">
                    <stop offset="0" stop-color="#E8E6E7"></stop>
                    <stop offset="1" stop-color="#AEA0A8"></stop>
                </linearGradient>

       
                <g class="logo">
                    <path class="st1" d="M41.1 43.1V.6H21.6v11.5c-4 6.7-8 11.5-8 13.7 0 2.4 2 2.8 6.6 2.8v14.3h20.9z"></path>
                    <path class="st3" d="M54.2 9.6h4.1v19.3h-4.1V9.6zM75 29c-.8.2-1.9.3-2.8.3-3.8 0-6.1-1.2-6.1-4.9V11.7H63V9.6h3.1V5.1l4.1-2.5v7h5.3v2.1h-5.3v11.1c0 2.8.3 4.2 2.9 4.2.6 0 1.3-.1 1.9-.3V29zM93.8 28.2c-1.7.7-3.2 1.1-5.6 1.1-5.3 0-9.6-3.2-9.6-10.9 0-5.3 2.1-9.2 8.2-9.2 6.2 0 7.4 4.2 7.4 7.9H82.6c0 3.8 1.7 10.1 7.5 10.1 1.3 0 2.5-.2 3.7-.8v1.8zm-3.7-13c0-1.5-.5-4.3-3.6-4.3-3.2 0-3.8 3.2-3.8 4.3h7.4zM99 9.6h4.1v4.9h.1c1.3-2.6 2.7-5.1 6.2-5.3v4.2c-3.9.1-6.3 1.5-6.3 6.6v8.8H99V9.6zM123.7 26.2c-.7 1.1-2.4 3.1-5.5 3.1-3 0-5.3-1.9-5.3-5.3 0-6.2 8.2-7.5 10.8-7.6v.1c0-2.1 0-5.6-2.7-5.6-2.5 0-3 1.9-3.1 4.2h-4.3c.2-2.9 1.3-5.9 7.4-5.9 6.3 0 6.8 3.5 6.8 7.3v12.4h-4.1v-2.7zm0-8.2c-1.7.1-6.3 1.3-6.3 5.3 0 2.6 1.1 3.4 2.4 3.4 1.4 0 3.9-1.4 3.9-4.7v-4z"></path>
                    <path class="st4" d="M144.1 29c-.8.2-1.9.3-2.8.3-3.8 0-6.1-1.2-6.1-4.9V11.7h-3.1V9.6h3.1V5.1l4.1-2.5v7h5.3v2.1h-5.3v11.1c0 2.8.3 4.2 2.9 4.2.6 0 1.3-.1 1.9-.3V29zM162.8 28.2c-1.7.7-3.2 1.1-5.6 1.1-5.3 0-9.6-3.2-9.6-10.9 0-5.3 2.1-9.2 8.2-9.2 6.2 0 7.4 4.2 7.4 7.9h-11.5c0 3.8 1.7 10.1 7.5 10.1 1.3 0 2.5-.2 3.7-.8v1.8zm-3.6-13c0-1.5-.5-4.3-3.6-4.3-3.2 0-3.8 3.2-3.8 4.3h7.4zM182.2 28.3c-1.7.6-3.4 1-5.1 1-6.1 0-9.7-3.7-9.7-10.8 0-5.7 2.6-9.3 8.2-9.3 5.2 0 6.9 2.8 6.9 6.7h-4.3c0-2.3-.2-5-2.8-5-2.3 0-3.6 2.7-3.6 6.2 0 4.7 2 10.1 6.9 10.1 1.2 0 2.3-.3 3.4-.7v1.8z"></path>
                    <circle class="st3" cx="56.3" cy="3" r="2.6"></circle>
                    <path class="st5" d="M9.3 8.9c-2 0-3.7 1.2-4.5 3 1.1 1.6 2.7 2.5 4.4 2.5 1.9 0 3.2-1.3 4.8-2.3-.5-1.5-2.9-3.2-4.7-3.2z"></path>
                    <path class="st3" d="M0 0v43.7h41.7V0H0zm19.5 42.4H1.3V1.3H21V12c-1.4 2.3-2.7 4.4-4 6.2-2.4 3.7-4 6.1-4 7.7 0 3.1 2.8 3.5 6.6 3.5v13zm21 0H20.9v-7.1c2.9 0 6.9-.1 9.7-2.9l-.2-2.2c-2.3 3.3-6.4 3.5-9.6 3.5V28h-.7c-5.1 0-5.9-.6-5.9-2.2 0-1.2 1.8-3.9 3.8-6.9 1.3-1.9 2.7-4 4.1-6.4l.1-.2v-11h18.2v41.1z"></path>
                    <path class="st3" d="M9.4 8.2C7.1 8.2 4.8 9.6 4 12l1.3.7c.4-1.4 1.8-3.1 3.7-3.2-1 .1-1.8.9-1.8 2s.9 2 2 2c.7 0 1.3-.4 1.7-.9.2-.3.4-.7.4-1.1 0-1-.7-1.8-1.7-2 1.5.1 3.4 1.7 3.9 3l1.5-.2c-.6-1.8-3.2-4.1-5.6-4.1z"></path>
                    <path class="st5" d="M32.4 8.9c2 0 3.7 1.2 4.5 3-1.1 1.6-2.7 2.5-4.4 2.5-1.9 0-3.2-1.3-4.8-2.3.5-1.5 2.9-3.2 4.7-3.2z"></path>
                    <path class="st3" d="M32.3 8.2c2.3 0 4.6 1.4 5.4 3.8l-1.3.7c-.4-1.4-1.8-3.1-3.7-3.2 1 .1 1.8.9 1.8 2s-.9 2-2 2c-.7 0-1.3-.4-1.7-.9-.2-.3-.4-.7-.4-1.1 0-1 .7-1.8 1.7-2-1.5.1-3.4 1.7-3.9 3l-1.5-.2c.6-1.8 3.2-4.1 5.6-4.1z"></path>
                </g>
            </svg>	